<?xml version="1.0" encoding="UTF-8"?>
<svg width="10px" height="6px" viewBox="0 0 10 6" version="1.1" xmlns="http://www.w3.org/2000/svg" xmlns:xlink="http://www.w3.org/1999/xlink">
    <!-- Generator: Sketch 59 (86127) - https://sketch.com -->
    <title>Path</title>
    <desc>Created with Sketch.</desc>
    <g id="Design" stroke="none" stroke-width="1" fill="none" fill-rule="evenodd">
        <g id="Savings-Account" transform="translate(-912.000000, -5987.000000)" fill="#7A7A7A">
            <g id="Group-6" transform="translate(495.000000, 5967.000000)">
                <path d="M426.045826,20.180319 L422.001397,24.5468897 L417.953895,20.1766991 C417.735662,19.9411003 417.381907,19.9411003 417.163674,20.1766991 C416.945442,20.4116945 416.945442,20.794203 417.163674,21.0298018 L421.600699,25.8211139 C421.669997,25.8959263 421.765002,25.9526389 421.860007,25.9794869 C421.90751,25.9930618 421.95613,26 422.004191,26 C422.150332,26 422.293399,25.9375558 422.399301,25.8232255 L426.836326,21.0331201 C427.054558,20.7975213 427.054558,20.4156161 426.836326,20.1800173 C426.618093,19.9444186 426.264059,19.9447203 426.045826,20.180319 L426.045826,20.180319 Z" id="Path"></path>
            </g>
        </g>
    </g>
</svg>