<?xml version="1.0" encoding="UTF-8"?>
<svg width="18px" height="17px" viewBox="0 0 18 17" version="1.1" xmlns="http://www.w3.org/2000/svg" xmlns:xlink="http://www.w3.org/1999/xlink">
    <!-- Generator: Sketch 59 (86127) - https://sketch.com -->
    <title>check</title>
    <desc>Created with Sketch.</desc>
    <g id="Sympols" stroke="none" stroke-width="1" fill="none" fill-rule="evenodd">
        <g id="Tick" fill-rule="nonzero">
            <g id="check">
                <path d="M16.1485829,7.06381224 C15.7551888,7.06381224 15.4363202,7.38507755 15.4363202,7.78135102 L15.4363202,8.50405918 C15.4352526,10.3892551 14.7054949,12.1612102 13.3814962,13.4934551 C12.0584617,14.8247286 10.3003622,15.5577408 8.43054337,15.5577408 C8.42916582,15.5577408 8.42778827,15.5577408 8.42641071,15.5577408 C4.56334439,15.5555204 1.42232143,12.3876571 1.42452551,8.49594082 C1.42559311,6.61077959 2.15535077,4.83882449 3.47938393,3.5065102 C4.80241837,2.17523673 6.5605523,1.44222449 8.43033673,1.44222449 C8.43171429,1.44222449 8.43309184,1.44222449 8.43446939,1.44222449 C9.42189796,1.44277959 10.3799158,1.64837551 11.2818673,2.05321837 C11.6412704,2.2145449 12.0622156,2.05179592 12.2223559,1.68983469 C12.3824273,1.32787347 12.2209783,0.903706122 11.8616441,0.742379592 C10.7762717,0.255173469 9.62350255,0.00780612245 8.43526148,0.00714693878 C8.43347066,0.00714693878 8.43209311,0.00714693878 8.4303023,0.00714693878 C6.18045153,0.00714693878 4.06460204,0.889342857 2.4726352,2.49122857 C0.879428571,4.09436327 0.00130867347,6.22661429 -1.38874392e-06,8.49517755 C-0.00127423469,10.7636714 0.874366071,12.8969286 2.46578189,14.5019367 C4.0571977,16.1069449 6.17373597,16.9915694 8.42558418,16.9928878 C8.42734056,16.9928878 8.42875255,16.9928878 8.43054337,16.9928878 C10.6803941,16.9928878 12.7962436,16.1107265 14.3882105,14.5088061 C15.9814171,12.9056367 16.859537,10.7733857 16.8608457,8.50447551 L16.8608457,7.78138571 C16.8608457,7.38507755 16.541977,7.06381224 16.1485829,7.06381224 Z" id="Path" fill="#F7D700"></path>
                <path d="M17.424023,0.999287755 C17.145861,0.7191 16.6948852,0.7191 16.4167232,0.999287755 L8.43040561,9.04472857 L6.61861607,7.21951837 C6.34048852,6.93929592 5.88947832,6.93929592 5.61135077,7.21951837 C5.33318878,7.49974082 5.33318878,7.95405714 5.61135077,8.23427959 L7.9268074,10.5668878 C8.06587117,10.7070163 8.24819005,10.7770633 8.43047449,10.7770633 C8.61275893,10.7770633 8.79504337,10.7070163 8.93414158,10.5668878 L17.424023,2.01404898 C17.7021849,1.73382653 17.7021849,1.2795102 17.424023,0.999287755 Z" id="Path" fill="#095BCC"></path>
            </g>
        </g>
    </g>
</svg>