<?xml version="1.0" encoding="UTF-8"?>
<svg width="7px" height="11px" viewBox="0 0 7 11" version="1.1" xmlns="http://www.w3.org/2000/svg" xmlns:xlink="http://www.w3.org/1999/xlink">
    <!-- Generator: Sketch 59 (86127) - https://sketch.com -->
    <title>right-arrow (1)</title>
    <desc>Created with Sketch.</desc>
    <g id="Design" stroke="none" stroke-width="1" fill="none" fill-rule="evenodd">
        <g id="About-us-1.2" transform="translate(-80.000000, -2940.000000)" fill="#0045A8">
            <g id="Group-13" transform="translate(70.000000, 2930.000000)">
                <g id="right-arrow-(1)" transform="translate(13.500000, 15.500000) scale(-1, -1) translate(-13.500000, -15.500000) translate(10.000000, 10.000000)">
                    <path d="M0.211538462,10.5416667 C0.352564103,10.6826923 0.528846154,10.7532051 0.72275641,10.7532051 C0.899038462,10.7532051 1.09294872,10.6826923 1.23397436,10.5416667 L5.88782051,5.88782051 C6.02884615,5.74679487 6.09935897,5.57051282 6.09935897,5.37660256 C6.09935897,5.18269231 6.02884615,5.00641026 5.88782051,4.86538462 L1.23397436,0.211538462 C0.951923077,-0.0705128205 0.493589744,-0.0705128205 0.211538462,0.211538462 C-0.0705128205,0.493589744 -0.0705128205,0.951923077 0.211538462,1.23397436 L4.35416667,5.37660256 L0.211538462,9.51923077 C-0.0705128205,9.80128205 -0.0705128205,10.2596154 0.211538462,10.5416667 L0.211538462,10.5416667 Z" id="Path"></path>
                </g>
            </g>
        </g>
    </g>
</svg>